<!-- Generated by IcoMoon.io -->
<svg version="1.1" xmlns="http://www.w3.org/2000/svg" width="20" height="20" viewBox="0 0 20 20">
<title>IconBell</title>
<path d="M13.536 7.172c0 2.836 0.67 4.611 1.309 5.657h-9.69c0.639-1.047 1.309-2.821 1.309-5.657 0-0.977 0.395-1.86 1.035-2.5s1.524-1.035 2.5-1.035 1.86 0.395 2.5 1.035 1.035 1.524 1.035 2.5zM14.95 7.172c0-1.367-0.555-2.605-1.45-3.5s-2.133-1.45-3.5-1.45-2.605 0.555-3.5 1.45-1.45 2.133-1.45 3.5c0 4.333-1.692 5.691-1.812 5.78-0.32 0.218-0.405 0.653-0.19 0.977 0.136 0.203 0.358 0.313 0.588 0.315h12.729c0.39 0 0.707-0.317 0.707-0.707 0-0.24-0.119-0.451-0.303-0.581-0.124-0.092-1.818-1.45-1.818-5.784zM10.612 16.010c-0.098 0.169-0.254 0.282-0.43 0.329s-0.368 0.026-0.537-0.071c-0.115-0.066-0.2-0.157-0.254-0.252-0.194-0.339-0.625-0.458-0.965-0.264s-0.458 0.625-0.264 0.965c0.177 0.31 0.441 0.582 0.773 0.775 0.506 0.294 1.085 0.354 1.609 0.215s0.996-0.479 1.29-0.986c0.196-0.338 0.081-0.771-0.257-0.967s-0.771-0.081-0.967 0.257z"></path>
</svg>
