<!-- Generated by IcoMoon.io -->
<svg version="1.1" xmlns="http://www.w3.org/2000/svg" width="32" height="32" viewBox="0 0 32 32">
<title>IconAlert</title>
<path d="M28.332 22.072l-9.807-15.367c-0.553-0.867-1.497-1.384-2.525-1.384s-1.972 0.518-2.525 1.384l-9.807 15.367c-0.589 0.922-0.628 2.092-0.102 3.052s1.533 1.556 2.627 1.556h19.614c1.094 0 2.101-0.596 2.627-1.556s0.487-2.129-0.102-3.051zM16 24.093c-0.902 0-1.633-0.731-1.633-1.633s0.731-1.633 1.633-1.633c0.902 0 1.633 0.731 1.633 1.633s-0.731 1.633-1.633 1.633zM18.263 12.745l-0.804 5.415c-0.118 0.797-0.861 1.347-1.658 1.229-0.644-0.096-1.127-0.601-1.226-1.21l-0.873-5.404c-0.203-1.258 0.652-2.443 1.91-2.646s2.443 0.652 2.646 1.91c0.038 0.237 0.037 0.482 0.005 0.707z"></path>
</svg>
