<!-- Generated by IcoMoon.io -->
<svg version="1.1" xmlns="http://www.w3.org/2000/svg" width="32" height="32" viewBox="0 0 32 32">
<title>IconCross</title>
<path d="M19.514 16l5.972 5.972c0.388 0.388 0.388 1.018 0 1.406l-2.107 2.107c-0.388 0.388-1.017 0.388-1.406 0l-5.973-5.972-5.973 5.972c-0.388 0.388-1.017 0.388-1.405 0l-2.108-2.107c-0.388-0.388-0.388-1.017 0-1.406l5.973-5.972-5.973-5.973c-0.388-0.388-0.388-1.018 0-1.406l2.109-2.107c0.388-0.388 1.017-0.388 1.405 0l5.972 5.973 5.973-5.973c0.388-0.388 1.017-0.388 1.406 0l2.107 2.108c0.388 0.388 0.388 1.017 0 1.406l-5.972 5.972z"></path>
</svg>
