<!-- Generated by IcoMoon.io -->
<svg version="1.1" xmlns="http://www.w3.org/2000/svg" width="32" height="32" viewBox="0 0 32 32">
<title>IconUpload</title>
<path d="M26.892 16.079c0.092-0.453 0.14-0.921 0.14-1.401 0-3.878-3.144-7.022-7.022-7.022-2.876 0-5.347 1.73-6.432 4.205-0.834-0.543-1.828-0.862-2.898-0.862-2.812 0-5.109 2.184-5.301 4.948-1.515 0.695-2.569 2.221-2.569 3.997 0 2.43 1.97 4.4 4.4 4.4 0 0 4.767 0 6.356 0 0.312 0 0.327-0.346 0.327-0.346v-2.823c0-0.241-0.197-0.438-0.438-0.438h-1.202c-0.241 0-0.321-0.159-0.177-0.352l3.665-4.947c0.144-0.194 0.378-0.194 0.522 0l3.665 4.947c0.143 0.194 0.064 0.352-0.177 0.352h-1.202c-0.241 0-0.438 0.197-0.438 0.438v2.829c0 0 0.018 0.34 0.341 0.34 1.585 0 6.341 0 6.341 0 2.43 0 4.4-1.97 4.4-4.4 0-1.668-0.929-3.12-2.297-3.866z"></path>
</svg>
