<!-- Generated by IcoMoon.io -->
<svg version="1.1" xmlns="http://www.w3.org/2000/svg" width="32" height="32" viewBox="0 0 32 32">
<title>IconUser</title>
<path d="M26.578 26.676c-0.744-5.003-2.683-9.933-7.26-11.514 1.779-1.108 2.959-3.079 2.959-5.33 0-3.463-2.808-6.277-6.277-6.277s-6.277 2.808-6.277 6.277c0 2.247 1.186 4.223 2.959 5.33-4.576 1.581-6.521 6.511-7.26 11.514-0.14 0.931 0.593 1.768 1.534 1.768h18.076c0.952 0 1.685-0.837 1.545-1.768zM12.089 9.832c0-2.158 1.758-3.916 3.916-3.916 0.515 0 0.936 0.421 0.936 0.936s-0.421 0.936-0.936 0.936c-1.129 0-2.044 0.915-2.044 2.044 0 0.515-0.421 0.936-0.936 0.936-0.52 0-0.936-0.416-0.936-0.936z"></path>
</svg>
